<?xml version="1.0" encoding="utf-8"?>
<!-- Generator: Adobe Illustrator 19.1.0, SVG Export Plug-In . SVG Version: 6.00 Build 0)  -->
<svg version="1.1" id="Layer_1" xmlns="http://www.w3.org/2000/svg" xmlns:xlink="http://www.w3.org/1999/xlink" x="0px" y="0px"
	 viewBox="0 0 186 38.7" style="enable-background:new 0 0 186 38.7;" xml:space="preserve">
<style type="text/css">
	.st0{fill:#FFFFFF;}
</style>
<g>
	<path class="st0" d="M41.8,0c2,0,2.1,1.8,2.1,1.8c0.2,0.6-5.9,1.1-8.8,1.8c-7.7,1.9-16.1,5.8-21.4,12c-0.2,0.4-3.5,4.8,2.4,3.1
		c1.5-0.4,11.3-4.6,11.5-1.4c0,1.4-2.1,1.9-3.1,2.1c-4.2,0.5-7.4,1.2-10.9,3C8.3,25.1-5.3,36.8,9.9,36.8c1.3-0.1,1.5-0.2,2.3-0.2
		c5.7-1.1,4-0.9,16.9-6.9c2.3-1.5,3.5-3.8,6-4.9c1.8-1,3.6-1.5,4.2-1.3c1.6,0.7-2.4,4.9-3.7,5.3c-0.2,0.1-0.2,0.3,0,0.5
		c0.3,0.1,2.1-0.2,3-0.1c1,0.1,1.4,0.3,1.7,0.5c0.7,1-0.6,3.2-0.6,3.2c2.4-0.2,9.8-6.5,11.3-4.6c1.8,2.3-2.8,4.7-2.8,6.7
		c0,0.3,0,0.3,0,0.5c0.1,0.2,0.7,0.5,2,0.2c1-0.2,1.8-1,2.5-1.1c0.6-0.1,0.9,0.5,1.5,0.4c0.1,0,0.1,0.1,0,0.2
		c-1.6,1.8-5,3.5-7.1,2.9c-0.9-0.3-2-1-2.2-2.1c-0.1-0.8,0.5-2.1,0.8-2.9c0.1-0.2,0.4-0.7,0.4-0.8c-0.6,0.2-2.2,1-4.1,2.1
		c-3.5,2-8.7,4.5-8.4,0.9c0-0.8,1.7-2.3,2.2-3.4c0.1-0.2,0.2-0.3,0-0.3c-1.1-0.1-2.2-0.2-3.3-0.3c-5.7,0.4-29.3,14.5-32.4,2.8
		c-0.7-2.6,0.9-4.6,2.5-6.3c1.6-1.8,6.1-6.5,8.5-6.5c-0.1-0.1-0.1-0.1-0.3-0.2C5.3,12.4,29.1,1.1,36.6,0.3C38.4,0.1,39.4,0,41.8,0"
		/>
	<path class="st0" d="M90.6,35.4c-0.7,0.2-1.1,0.3-2,0.4c-21.7,0,9.3-17.2,13.8-19.4c3.4-1.7,7-2.6,10.7-3.6
		c2.7-0.7,7.4-0.7,7.9,1.8c0.4,1.9-1.1,4.3-2.1,5.6C110.8,31.1,102.4,31.3,90.6,35.4 M149.9,27c-1.1-0.1-3.9,0.8-5.4,1.2
		c-1.7,0.5-4.8,2.1-6.4,2.7c-0.2,0-0.6,0.3-0.7-0.1c-0.1-0.4,0-1.5-0.2-1.8c-0.3-0.7-1-0.9-1.4-0.8c-7.7,0.8-13.9,6.1-20.2,8.6
		c-0.3,0.1-0.7,0.3-0.8,0.3c-0.1-0.1,0.1-0.3,0.3-0.6c5.9-9.6,18.1-15.4,27-20.6c0.2-0.1,0.2-0.5,0.1-0.7c-0.3-0.7-0.8-0.5-1.1-0.4
		c-0.3,0.1-1,0.4-1.4,0.5C127.3,19.8,119,30.2,106,33.7c-0.3,0.1,0-0.3,2.1-1.6c7.2-4.2,26.6-21.7,5.8-21.7c-0.5,0-0.7,0-1.6,0
		c-12.5,0-31,13.4-35.9,24.2c-0.1,0.1-0.1,0.3-0.1,0.3c-0.1,0.2-0.9,0.4-1.5,0.4c-0.6,0-1.8,0.1-2.5,0.1c-5.6-0.2-5.9,0.4-3-3.6
		c0.6-0.8,1.3-1.1,2.1-1.8c2.2-1.8,0.9-2.9-0.8-2.3c-2.1,0.7-4,2.9-5.9,3.7c-2,0.9-3.2,1-2.9,0.7c0.1-0.1,0.1-0.1,0.2-0.2
		c1.7-1.6,3.1-3.7,4.7-5.4c4.2-4.2,8.7-8.3,13-12.5c0.8-0.9,1.3-1.2,1.3-1.6c0-0.4-0.6-1-1.1-1c-3.5,0-35.6,31.2-15.6,21.4
		c0.2-0.1,0.3-0.2,0.5-0.2c0,8.1,7.4,4.5,12.6,4.5c0.3,0,4.3,1.1,5.1,1.3c1.5,0.3,5.3,0,9.2-0.8c3.7-0.8,7.6-2.1,10.5-3.1
		c0,3.9,9.3-0.3,10.3-0.7c0.1-0.1,0.3-0.1,0.3,0c0,2.1-0.9,4.3,0.2,4.6c3.6,1.1,13.5-6.9,19-8.2c0.9-0.2,1.7,0,2.5,0.2
		c0.2,0.1,0.3,0.1,0.3,0.2c0.1,0.1-1.5,1.2-2.3,1.7c-1.5,0.8-4.4,1.8-4.5,2.1c0,0-0.4,0.8,1.2,1.8c0.6,0.3,1.6,0,2.5-0.2
		c2.7-0.6,4.5-2.9,6.7-4.3c2.4-1.5,5.7-2,8.7-2.4c0.8-0.1,0.5,0.4,0.3,0.5c-2.4,1.2-6.8,3.3-7.1,3.4c-0.3,0.2,0.3,2.1,1.3,2.2
		c1.4,0.2,3.5-1.1,5.6-2.3c1.7-1,4.3-2.1,5.1-3.3C153.9,27.6,150.1,27,149.9,27"/>
	<path class="st0" d="M64.8,17.1c0.6,0.1,1.1,0.5,1.3,0.6c0.3,0.2,0.2,0.3,0,0.3c-1,0.4-2.4,0.7-3.8,1.5c-2.1,1.2-3.7,2.7-3.7,2.7
		c-0.4-0.2-0.8-0.5-1.3-0.7c-0.1-0.1-0.1-0.2,0-0.3c1.1-1.6,2.5-3.5,5.3-4C63,17.2,64.1,17,64.8,17.1"/>
	<path class="st0" d="M156.8,33.6c-0.5,0.2-1.1,0-1.3,0.2c0.2-0.1,0.4-0.6,0.7-1c0.4-0.3,0.9-0.6,1.2-0.6
		C158.4,32.2,158.1,33.2,156.8,33.6 M181.2,35.7c-1.2-0.1-2.1-0.6-3.3-0.7c-0.1,0-0.1-0.3,0-0.5c0.3-0.5,0.8-0.8,1.1-1.3
		c-0.2,0.4,3.3-4.7-3.9-2.4c-0.1,0-0.1,0-0.3,0.2c0-1.2-3.1-2-4-2c-0.5,0-1.2,0.2-1.8,0.2c-0.5,0.1-1,0.2-1.5,0.2
		c-0.5,0.1-1,0.2-1.5,0.2c-0.2,0-1.3,0.1-1.9-0.2c-0.7-0.3-1.3-1.1-2.1-1.3c-1-0.2-2.6,0-3.5,0.2c-3.3,0.7-10.5,6.2-5.3,7.7
		c3.2,0.9,5.4-0.3,7.2-2.1c1.1-1.1,1.8-2.6,3.1-3.2c1.8-0.8,4.2-0.1,6.1,0.1c0.1,0,0.1,0.3,0.1,0.6c-0.2,1.6-4.2,2.1-3.2,4.2
		c0,0,0.3,0.5,0.8,0.8c2,1,4.5-2.1,6.4-1.9c0.5,0.1,1.8,2.1,2.8,2.7c2.4,1.6,6.2,1.1,9.1,0.5c0.2-0.1,0.4-2.5,0.1-2.5
		C184.4,35.4,182.7,35.8,181.2,35.7"/>
</g>
</svg>
